<svg width="1440" height="520" viewBox="0 0 1440 520" fill="none" xmlns="http://www.w3.org/2000/svg" role="img" aria-labelledby="title desc">
  <title id="title">Personal Homepage Builder</title>
  <desc id="desc">A logo showing a personal homepage card being assembled from identity, content, style, and publishing signals.</desc>
  <defs>
    <linearGradient id="sky" x1="80" y1="40" x2="1360" y2="480" gradientUnits="userSpaceOnUse">
      <stop offset="0" stop-color="#F7FBFF"/>
      <stop offset="0.55" stop-color="#F2F7F4"/>
      <stop offset="1" stop-color="#FFF6EC"/>
    </linearGradient>
    <linearGradient id="accent" x1="391" y1="112" x2="1028" y2="432" gradientUnits="userSpaceOnUse">
      <stop offset="0" stop-color="#0A7EBA"/>
      <stop offset="0.48" stop-color="#2E6B3F"/>
      <stop offset="1" stop-color="#E95D3C"/>
    </linearGradient>
    <filter id="shadow" x="205" y="61" width="1030" height="398" filterUnits="userSpaceOnUse" color-interpolation-filters="sRGB">
      <feFlood flood-opacity="0" result="BackgroundImageFix"/>
      <feColorMatrix in="SourceAlpha" type="matrix" values="0 0 0 0 0 0 0 0 0 0 0 0 0 0 0 0 0 0 127 0" result="hardAlpha"/>
      <feOffset dy="18"/>
      <feGaussianBlur stdDeviation="22"/>
      <feComposite in2="hardAlpha" operator="out"/>
      <feColorMatrix type="matrix" values="0 0 0 0 0.07 0 0 0 0 0.12 0 0 0 0 0.14 0 0 0 0.16 0"/>
      <feBlend mode="normal" in2="BackgroundImageFix" result="effect1_dropShadow_1_2"/>
      <feBlend mode="normal" in="SourceGraphic" in2="effect1_dropShadow_1_2" result="shape"/>
    </filter>
  </defs>

  <rect width="1440" height="520" rx="36" fill="url(#sky)"/>
  <path d="M94 391C217 332 277 407 393 350C471 311 499 225 604 224C719 222 731 326 848 323C952 320 978 236 1088 228C1198 220 1266 290 1346 245" stroke="#CFDCD3" stroke-width="5" stroke-linecap="round"/>

  <g filter="url(#shadow)">
    <rect x="251" y="104" width="938" height="310" rx="26" fill="#FFFFFF"/>
    <rect x="251" y="104" width="938" height="310" rx="26" stroke="#E3E9E5" stroke-width="2"/>

    <rect x="286" y="137" width="868" height="50" rx="15" fill="#F3F7F8"/>
    <circle cx="321" cy="162" r="8" fill="#E95D3C"/>
    <circle cx="350" cy="162" r="8" fill="#F3B546"/>
    <circle cx="379" cy="162" r="8" fill="#2E6B3F"/>
    <rect x="841" y="151" width="222" height="22" rx="11" fill="#E7EEF1"/>
    <rect x="1080" y="151" width="48" height="22" rx="11" fill="#0A7EBA"/>

    <rect x="307" y="222" width="174" height="150" rx="22" fill="#F2F7F4" stroke="#DCE7DF" stroke-width="2"/>
    <circle cx="394" cy="274" r="34" fill="#0A7EBA"/>
    <path d="M337 351C350 318 371 303 394 303C417 303 438 318 451 351" stroke="#2E6B3F" stroke-width="18" stroke-linecap="round"/>

    <rect x="526" y="224" width="328" height="27" rx="13.5" fill="#14313D"/>
    <rect x="526" y="267" width="278" height="16" rx="8" fill="#78909B"/>
    <rect x="526" y="297" width="235" height="16" rx="8" fill="#A3B4B9"/>
    <rect x="526" y="342" width="96" height="30" rx="15" fill="#0A7EBA"/>
    <rect x="638" y="342" width="96" height="30" rx="15" fill="#2E6B3F"/>
    <rect x="750" y="342" width="96" height="30" rx="15" fill="#E95D3C"/>

    <rect x="906" y="220" width="218" height="152" rx="20" fill="#FFF6EC" stroke="#F1D8C6" stroke-width="2"/>
    <path d="M936 334L980 284L1015 316L1047 272L1094 334H936Z" fill="url(#accent)"/>
    <circle cx="961" cy="253" r="17" fill="#F3B546"/>
  </g>

  <g>
    <rect x="178" y="165" width="135" height="46" rx="23" fill="#14313D"/>
    <text x="245.5" y="195" text-anchor="middle" font-family="Inter, Segoe UI, Arial, sans-serif" font-size="18" font-weight="700" fill="#FFFFFF">Identity</text>

    <rect x="1098" y="91" width="130" height="46" rx="23" fill="#0A7EBA"/>
    <text x="1163" y="121" text-anchor="middle" font-family="Inter, Segoe UI, Arial, sans-serif" font-size="18" font-weight="700" fill="#FFFFFF">Style</text>

    <rect x="1122" y="391" width="138" height="46" rx="23" fill="#2E6B3F"/>
    <text x="1191" y="421" text-anchor="middle" font-family="Inter, Segoe UI, Arial, sans-serif" font-size="18" font-weight="700" fill="#FFFFFF">Publish</text>

    <rect x="157" y="334" width="142" height="46" rx="23" fill="#E95D3C"/>
    <text x="228" y="364" text-anchor="middle" font-family="Inter, Segoe UI, Arial, sans-serif" font-size="18" font-weight="700" fill="#FFFFFF">Content</text>
  </g>

  <path d="M313 188C349 192 384 204 414 224" stroke="#14313D" stroke-width="4" stroke-linecap="round" stroke-dasharray="2 12"/>
  <path d="M1098 122C1047 137 1005 168 980 219" stroke="#0A7EBA" stroke-width="4" stroke-linecap="round" stroke-dasharray="2 12"/>
  <path d="M1122 406C1081 393 1050 381 1026 366" stroke="#2E6B3F" stroke-width="4" stroke-linecap="round" stroke-dasharray="2 12"/>
  <path d="M299 354C329 348 354 342 377 334" stroke="#E95D3C" stroke-width="4" stroke-linecap="round" stroke-dasharray="2 12"/>
</svg>
